<?xml version="1.0" encoding="UTF-8" standalone="no"?>
<svg
   xmlns:dc="http://purl.org/dc/elements/1.1/"
   xmlns:cc="http://creativecommons.org/ns#"
   xmlns:rdf="http://www.w3.org/1999/02/22-rdf-syntax-ns#"
   xmlns:svg="http://www.w3.org/2000/svg"
   xmlns="http://www.w3.org/2000/svg"
   xmlns:sodipodi="http://sodipodi.sourceforge.net/DTD/sodipodi-0.dtd"
   xmlns:inkscape="http://www.inkscape.org/namespaces/inkscape"
   viewBox="0 0 101.25 101.24999"
   height="108"
   width="108"
   version="1.1"
   id="svg4"
   sodipodi:docname="mastodon.svg"
   inkscape:version="0.92.1 r"
   inkscape:export-filename="/home/codl/dev/forget/assets/mastodon.png"
   inkscape:export-xdpi="96"
   inkscape:export-ydpi="96">
  <metadata
     id="metadata10">
    <rdf:RDF>
      <cc:Work
         rdf:about="">
        <dc:format>image/svg+xml</dc:format>
        <dc:type
           rdf:resource="http://purl.org/dc/dcmitype/StillImage" />
        <dc:title></dc:title>
      </cc:Work>
    </rdf:RDF>
  </metadata>
  <defs
     id="defs8" />
  <sodipodi:namedview
     pagecolor="#ffffff"
     bordercolor="#666666"
     borderopacity="1"
     objecttolerance="10"
     gridtolerance="10"
     guidetolerance="10"
     inkscape:pageopacity="0"
     inkscape:pageshadow="2"
     inkscape:window-width="1219"
     inkscape:window-height="900"
     id="namedview6"
     showgrid="false"
     inkscape:zoom="2.194861"
     inkscape:cx="50.601219"
     inkscape:cy="53.761946"
     inkscape:window-x="0"
     inkscape:window-y="31"
     inkscape:window-maximized="0"
     inkscape:current-layer="svg4"
     units="px"
     inkscape:pagecheckerboard="true" />
  <path
     d="m 76.184258,49.229421 c -3.9125,0 -7.085,-3.1825 -7.085,-7.095 0,-3.91125 3.1725,-7.09375 7.085,-7.09375 3.92125,0 7.09375,3.1825 7.09375,7.09375 0,3.9125 -3.1725,7.095 -7.09375,7.095 m -25.55875,0 c -3.9225,0 -7.095,-3.1825 -7.095,-7.095 0,-3.91125 3.1725,-7.09375 7.095,-7.09375 3.91125,0 7.09375,3.1825 7.09375,7.09375 0,3.9125 -3.1825,7.095 -7.09375,7.095 m -25.57,0 c -3.91125,0 -7.08375,-3.1825 -7.08375,-7.095 0,-3.91125 3.1725,-7.09375 7.08375,-7.09375 3.92125,0 7.09375,3.1825 7.09375,7.09375 0,3.9125 -3.1725,7.095 -7.09375,7.095 m 72.5775,-15.905 c 0,-21.86625 -14.32375,-28.2737494 -14.32375,-28.2737494 -7.23,-3.31875 -19.63,-4.71250004 -32.5175,-4.82750004 h -0.3125 c -12.88875,0.115 -25.28875,1.50875004 -32.5075,4.82750004 0,0 -14.3237495,6.4074994 -14.3237495,28.2737494 0,5.00375 -0.105,10.995 0.05125,17.34 0.52,21.38875 3.92125,42.46375 23.6974995,47.69625 9.1125,2.412499 16.945,2.912499 23.24875,2.568749 11.4225,-0.63375 17.84,-4.076249 17.84,-4.076249 l -0.37375,-8.3025 c 0,0 -8.16625,2.58 -17.34125,2.2675 -9.09125,-0.3125 -18.6825,-0.9775 -20.16,-12.13875 -0.135,-0.97875 -0.1975,-2.02875 -0.1975,-3.13125 0,0 8.915,2.185 20.2325,2.69375 6.9075,0.3225 13.39875,-0.39375 19.98375,-1.185 12.6275,-1.50875 23.62375,-9.29 25.0075,-16.405 2.17375,-11.1925 1.99625,-27.3275 1.99625,-27.3275"
     id="path2"
     style="fill:#ffffff"
     inkscape:connector-curvature="0" />
</svg>
